<svg id="avalache" enable-background="new 0 0 360 360" height="512" viewBox="0 0 360 360" width="512" xmlns="http://www.w3.org/2000/svg"><path d="m226.058 10.826c-41.421 0-75 33.579-75 75s33.579 75 75 75 75-33.579 75-75-33.579-75-75-75zm0 139.286c-35.504 0-64.286-28.782-64.286-64.286s28.782-64.286 64.286-64.286 64.286 28.782 64.286 64.286-28.782 64.286-64.286 64.286z"/><path d="m235.636 114.712c.894.583 2.426.583 5.473.583h20.651c3.047 0 4.579 0 5.492-.601.985-.639 1.605-1.716 1.66-2.883.052-1.041-.679-2.304-2.113-4.779-.05-.084-.099-.17-.149-.257l-10.345-17.695-.118-.199c-1.454-2.458-2.187-3.7-3.13-4.179-1.039-.529-2.262-.529-3.302 0-.949.492-1.715 1.788-3.229 4.396l-10.308 17.696-.035.061c-1.509 2.604-2.263 3.906-2.208 4.974.074 1.168.675 2.244 1.661 2.883z"/><path d="m240.974 67.84c.401-1.66.401-3.412 0-5.072-.362-1.521-1.192-2.97-2.827-5.827l-.038-.065-7.316-12.771c-1.514-2.663-2.28-3.996-3.247-4.488-1.04-.529-2.28-.529-3.321 0-.967.492-1.733 1.825-3.247 4.488l-35.586 62.725c-1.496 2.627-2.244 3.941-2.189 5.017.073 1.168.675 2.226 1.66 2.865.912.583 2.408.583 5.437.583h14.413c3.393 0 5.09 0 6.604-.419 1.66-.493 3.175-1.369 4.433-2.573 1.156-1.102 1.991-2.562 3.637-5.443l.048-.085 18.692-33.043c1.661-2.9 2.482-4.36 2.847-5.892z"/><g><path d="m310 347h-260c-19.851 0-36-16.149-36-36v-155c0-19.851 16.149-36 36-36h93.307c3.313 0 6 2.686 6 6s-2.687 6-6 6h-93.307c-13.234 0-24 10.766-24 24v155c0 13.233 10.766 24 24 24h260c13.233 0 24-10.767 24-24v-155c0-13.234-10.767-24-24-24-3.313 0-6-2.686-6-6s2.687-6 6-6c19.851 0 36 16.149 36 36v155c0 19.851-16.149 36-36 36z"/></g><g><path d="m98 312c-3.313 0-6-2.687-6-6v-61h-25v61c0 3.313-2.687 6-6 6s-6-2.687-6-6v-67c0-3.313 2.687-6 6-6h37c3.313 0 6 2.687 6 6v67c0 3.313-2.687 6-6 6z"/></g><g><path d="m165 312c-3.313 0-6-2.687-6-6v-76h-25v76c0 3.313-2.687 6-6 6s-6-2.687-6-6v-82c0-3.313 2.687-6 6-6h37c3.313 0 6 2.687 6 6v82c0 3.313-2.687 6-6 6z"/></g><g><path d="m232 312c-3.313 0-6-2.687-6-6v-96h-25v96c0 3.313-2.687 6-6 6s-6-2.687-6-6v-102c0-3.313 2.687-6 6-6h37c3.313 0 6 2.687 6 6v102c0 3.313-2.687 6-6 6z"/></g><g><path d="m299 312c-3.313 0-6-2.687-6-6v-115h-25v115c0 3.313-2.687 6-6 6s-6-2.687-6-6v-121c0-3.313 2.687-6 6-6h37c3.313 0 6 2.687 6 6v121c0 3.313-2.687 6-6 6z"/></g></svg>