<svg id="Layer_1" enable-background="new 0 0 512 512" viewBox="0 0 512 512" xmlns="http://www.w3.org/2000/svg"><path d="m256 201.494c31.844 0 57.751-25.907 57.751-57.751s-25.907-57.751-57.751-57.751-57.751 25.907-57.751 57.751 25.907 57.751 57.751 57.751zm0-99.502c23.021 0 41.751 18.729 41.751 41.751s-18.73 41.751-41.751 41.751-41.751-18.729-41.751-41.751 18.73-41.751 41.751-41.751zm187.995-34.48-54.334-54.334c-3.388-3.387-7.71-5.178-12.5-5.178h-296.656c-9.747 0-17.677 7.931-17.677 17.678v460.645c0 9.747 7.93 17.678 17.677 17.678h350.99c9.747 0 17.677-7.931 17.677-17.678v-406.312c0-4.792-1.791-9.115-5.177-12.499zm-54.826-32.198 32.689 32.689h-32.689zm42.326 452.686h-350.99c-.909 0-1.677-.769-1.677-1.678v-460.644c0-.909.768-1.678 1.677-1.678h292.664v47.164c0 7.079 5.76 12.839 12.839 12.839h47.164v402.319c0 .909-.768 1.678-1.677 1.678zm-33.834-46.318c0 4.418-3.582 8-8 8h-267.322c-4.418 0-8-3.582-8-8s3.582-8 8-8h267.322c4.418 0 8 3.582 8 8zm-283.322-44.687c0-4.418 3.582-8 8-8h167.318c4.418 0 8 3.582 8 8s-3.582 8-8 8h-167.318c-4.418 0-8-3.582-8-8zm35.614-231.823 13.269 5.106c2.018 7.068 4.836 13.867 8.415 20.298l-5.775 13.001c-1.343 3.024-.686 6.563 1.655 8.904l19.747 19.746c2.34 2.34 5.878 2.995 8.903 1.654l13.007-5.776c6.43 3.577 13.226 6.395 20.29 8.412l5.108 13.272c1.188 3.088 4.156 5.126 7.466 5.126h27.925c3.31 0 6.277-2.038 7.466-5.126l5.106-13.269c7.067-2.018 13.865-4.835 20.298-8.414l13.001 5.774c3.023 1.343 6.562.686 8.904-1.654l19.746-19.746c2.34-2.341 2.997-5.88 1.654-8.904l-5.776-13.007c3.578-6.432 6.396-13.227 8.412-20.29l13.271-5.108c3.089-1.188 5.127-4.156 5.127-7.466v-27.925c0-3.31-2.038-6.277-5.126-7.466l-13.268-5.106c-2.018-7.067-4.836-13.866-8.414-20.298l5.774-13.001c1.343-3.024.686-6.563-1.654-8.904l-19.746-19.746c-2.341-2.339-5.879-2.996-8.904-1.654l-13.007 5.777c-6.43-3.578-13.227-6.396-20.29-8.413l-5.108-13.271c-1.188-3.088-4.156-5.126-7.466-5.126h-27.925c-3.31 0-6.276 2.037-7.466 5.126l-5.109 13.271c-7.063 2.018-13.86 4.836-20.29 8.413l-13.007-5.777c-3.026-1.342-6.565-.686-8.904 1.655l-19.746 19.747c-2.34 2.34-2.997 5.879-1.654 8.903l5.776 13.005c-3.579 6.432-6.397 13.229-8.413 20.292l-13.271 5.108c-3.088 1.188-5.126 4.156-5.126 7.466v27.925c-.001 3.31 2.037 6.277 5.125 7.466zm10.874-29.898 11.971-4.608c2.462-.947 4.298-3.048 4.909-5.614 1.97-8.281 5.239-16.168 9.718-23.442 1.384-2.246 1.57-5.03.5-7.441l-5.211-11.732 11.978-11.979 11.734 5.212c2.409 1.071 5.195.886 7.441-.5 7.271-4.477 15.158-7.747 23.441-9.719 2.565-.61 4.666-2.446 5.613-4.908l4.608-11.971h16.939l4.608 11.971c.947 2.462 3.048 4.298 5.613 4.908 8.284 1.972 16.17 5.242 23.439 9.719 2.248 1.386 5.033 1.572 7.442.5l11.735-5.212 11.978 11.978-5.209 11.729c-1.07 2.411-.884 5.195.5 7.442 4.478 7.271 7.747 15.159 9.72 23.446.61 2.566 2.446 4.667 4.908 5.614l11.967 4.606v16.939l-11.97 4.607c-2.462.947-4.299 3.048-4.909 5.614-1.972 8.282-5.241 16.169-9.719 23.44-1.383 2.246-1.569 5.03-.499 7.441l5.211 11.734-11.978 11.979-11.729-5.209c-2.409-1.07-5.194-.886-7.442.5-7.271 4.478-15.159 7.748-23.446 9.719-2.566.611-4.667 2.447-5.614 4.909l-4.606 11.968h-16.938l-4.608-11.972c-.947-2.461-3.048-4.298-5.613-4.908-8.284-1.972-16.17-5.241-23.441-9.719-2.248-1.384-5.032-1.57-7.441-.499l-11.734 5.211-11.979-11.978 5.21-11.729c1.071-2.411.884-5.196-.5-7.442-4.478-7.27-7.748-15.158-9.721-23.446-.61-2.566-2.446-4.667-4.908-5.614l-11.968-4.606zm102.778 22.528c.196-.227.44-.509.326-1.448-.115-.945-.42-3.457-9.183-4.895-17.645-2.898-20.756-13.167-21.04-19.03-.442-9.086 5.215-16.783 14.291-19.814v-.354c0-4.418 3.582-8 8-8s8 3.582 8 8v.249c6.208 2.069 11.342 6.637 14.022 13.023 1.711 4.073-.205 8.763-4.279 10.473-4.068 1.709-8.762-.204-10.473-4.279-1.905-4.539-6.724-4.771-9.272-4.194-1.046.236-4.448 1.235-4.309 4.12.112 2.301 4.223 3.455 7.652 4.018 13.673 2.244 21.234 8.555 22.473 18.755.634 5.217-.787 10.004-4.107 13.844-2.798 3.234-6.938 5.637-11.707 6.906v.051c0 4.418-3.582 8-8 8s-8-3.582-8-8v-.195c-7.851-2.362-13.776-8.163-15.723-15.969-1.068-4.287 1.541-8.629 5.827-9.698 4.294-1.062 8.629 1.541 9.698 5.827.952 3.821 5.234 5.11 8.655 5 3.408-.083 6.176-1.264 7.149-2.39zm98.105 182.145v-82.394c0-6.723-5.469-12.191-12.19-12.191h-22.444c-6.722 0-12.19 5.469-12.19 12.191v82.394h-5.438c-3.92 0-7.516 2.298-9.162 5.853-1.646 3.556-1.072 7.785 1.466 10.777l28.851 33.979c1.921 2.262 4.724 3.56 7.692 3.561h.003c2.969 0 5.773-1.297 7.696-3.561l28.85-33.979c2.537-2.989 3.113-7.219 1.468-10.775-1.646-3.557-5.243-5.854-9.163-5.854h-5.439zm-23.413 34.951-16.091-18.951h.679c4.418 0 8-3.582 8-8v-86.585h14.825v86.585c0 4.418 3.582 8 8 8h.679zm-71.075-111.645h-22.443c-6.723 0-12.191 5.469-12.191 12.191v46.612h-5.438c-3.92 0-7.517 2.298-9.163 5.854-1.646 3.557-1.069 7.786 1.468 10.775l28.85 33.979s.001 0 .001.001c1.921 2.262 4.726 3.56 7.694 3.561h.001c2.968 0 5.772-1.298 7.696-3.562l28.85-33.979c2.537-2.989 3.113-7.219 1.468-10.775-1.646-3.557-5.243-5.854-9.164-5.854h-5.437v-46.612c-.001-6.722-5.47-12.191-12.192-12.191zm-11.222 93.756-16.092-18.952h.679c4.418 0 8-3.582 8-8v-50.804h14.826v50.804c0 4.418 3.582 8 8 8h.679zm-89.994-2.235s.001 0 0 0c1.923 2.264 4.729 3.562 7.699 3.562 2.969-.001 5.773-1.3 7.693-3.562l28.85-33.979c2.537-2.989 3.113-7.219 1.468-10.775-1.646-3.557-5.243-5.854-9.163-5.854h-5.438v-46.612c0-6.723-5.469-12.191-12.19-12.191h-22.445c-6.722 0-12.19 5.469-12.19 12.191v46.612h-5.438c-3.92 0-7.516 2.298-9.162 5.853-1.646 3.556-1.072 7.785 1.466 10.777zm-7.716-34.608c4.418 0 8-3.582 8-8v-50.804h14.825v50.804c0 4.418 3.582 8 8 8h.679l-16.092 18.952-16.092-18.952z"/></svg>