<?xml version="1.0" encoding="UTF-8"?>
<svg xmlns="http://www.w3.org/2000/svg" id="Icons" viewBox="0 0 60 60" width="512" height="512"><path d="M16.2,34.444A9.055,9.055,0,0,1,19,40.96v.224A3,3,0,0,0,17,44v1a3,3,0,0,0,2,2.816V52H18a1,1,0,0,0,0,2h1a6.006,6.006,0,0,0,6,6H35a6.006,6.006,0,0,0,6-6h1a1,1,0,0,0,0-2H41V47.816A3,3,0,0,0,43,45V44a3,3,0,0,0-2-2.816V40.97a9.16,9.16,0,0,1,2.9-6.611A19.811,19.811,0,0,0,50,20,20,20,0,1,0,16.2,34.444ZM39,52H36a1,1,0,0,0,0,2h3a4,4,0,0,1-4,4H25a4,4,0,0,1-4-4h3a1,1,0,0,0,0-2H21V48H39Zm2-7a1,1,0,0,1-1,1H20a1,1,0,0,1-1-1V44a1,1,0,0,1,1-1H40a1,1,0,0,1,1,1ZM12.076,18.367A18,18,0,1,1,42.506,32.92,11.293,11.293,0,0,0,39,40.97V41H35V32a1,1,0,0,0-2,0v9H27V32a1,1,0,0,0-2,0v9H21v-.04A11.068,11.068,0,0,0,17.58,33,17.909,17.909,0,0,1,12.076,18.367Z"/><path d="M30,56a3,3,0,1,0-3-3A3,3,0,0,0,30,56Zm0-4a1,1,0,1,1-1,1A1,1,0,0,1,30,52Z"/><path d="M20.675,22.126l1.271.21L21.2,23.383a2,2,0,0,0,.2,2.584l1.64,1.64a2,2,0,0,0,2.567.2l1.054-.751.21,1.271A1.994,1.994,0,0,0,28.847,30h2.306a1.994,1.994,0,0,0,1.973-1.675l.21-1.271,1.048.747a2.006,2.006,0,0,0,2.583-.2l1.64-1.64a2,2,0,0,0,.2-2.567l-.751-1.054,1.271-.21A1.994,1.994,0,0,0,41,20.153V17.847a1.994,1.994,0,0,0-1.675-1.973l-1.271-.21.746-1.047a2,2,0,0,0-.2-2.584l-1.64-1.64a2,2,0,0,0-2.567-.2l-1.054.751-.21-1.271A1.994,1.994,0,0,0,31.153,8H28.847a1.994,1.994,0,0,0-1.973,1.675l-.21,1.271L25.617,10.2a2.006,2.006,0,0,0-2.584.2l-1.64,1.64a2,2,0,0,0-.2,2.567l.751,1.054-1.271.21A1.994,1.994,0,0,0,19,17.847v2.306A1.994,1.994,0,0,0,20.675,22.126ZM21,17.847l1.271-.209a2,2,0,0,0,1.3-3.134l-.758-1.057,1.633-1.623,1.054.751a2,2,0,0,0,3.134-1.3L28.847,10h2.306l.209,1.271a2,2,0,0,0,3.134,1.3l1.057-.758,1.623,1.633L36.425,14.5a2,2,0,0,0,1.3,3.134l1.271.21v2.3l-1.271.209a2,2,0,0,0-1.3,3.134l.758,1.057L35.55,26.176,34.5,25.425a2,2,0,0,0-3.134,1.3L31.153,28H28.847l-.209-1.271a2,2,0,0,0-3.134-1.3l-1.057.758L22.824,24.55l.751-1.054a2,2,0,0,0-1.3-3.134L21,20.153Z"/><path d="M30,24a5,5,0,1,0-5-5A5.006,5.006,0,0,0,30,24Zm0-8a3,3,0,1,1-3,3A3,3,0,0,1,30,16Z"/><path d="M9.293,8.707a1,1,0,0,0,1.414-1.414l-5-5A1,1,0,0,0,4.293,3.707Z"/><path d="M50,9a1,1,0,0,0,.707-.293l5-5a1,1,0,1,0-1.414-1.414l-5,5A1,1,0,0,0,50,9Z"/><path d="M9.293,31.293l-5,5a1,1,0,1,0,1.414,1.414l5-5a1,1,0,0,0-1.414-1.414Z"/><path d="M49.293,31.293a1,1,0,0,0,0,1.414l5,5a1,1,0,0,0,1.414-1.414l-5-5A1,1,0,0,0,49.293,31.293Z"/><path d="M1,21H7a1,1,0,0,0,0-2H1a1,1,0,0,0,0,2Z"/><path d="M59,19H53a1,1,0,0,0,0,2h6a1,1,0,0,0,0-2Z"/></svg>
