<svg id="Layer_1" enable-background="new 0 0 75 75" viewBox="0 0 75 75" xmlns="http://www.w3.org/2000/svg"><g id="Financial_Vision"><path d="m59.6826172 21.2143555c.2416992-.2802734.2416992-.6962891 0-.9765625-5.6026154-6.5240374-12.650795-11.288086-21.2485352-11.288086-12.9941387 0-22.7026348 10.8173828-23.1113262 11.2792969-.2504883.2841797-.2504883.7099609 0 .9941406.2109375.2382813 5.2607422 5.8896484 12.9492188 9.1191406.3818359.1611328.8212891-.0195313.9819336-.4013672s-.019043-.8212891-.4008789-.9814453c-6.0693359-2.5488281-10.5302734-6.7910156-11.9370117-8.2333984 2.0678711-2.1171875 10.737793-10.2763672 21.5219707-10.2763672 7.9053383 0 14.4489021 4.3508711 19.6811523 10.2763672-3.5405273 4.0087891-7.3183594 6.8798828-11.2368164 8.5380859-.750515.3167133-.5221062 1.4404297.2924805 1.4404297.097168 0 .1962891-.0185547.2915039-.0595703 4.2915039-1.8154297 8.4013672-4.9882812 12.2163086-9.430664z"/><path d="m32.4355469 30.6567383c.3603516.3115234.5673828.7578125.5673828 1.2226563 0 .4140625.3359375.75.75.75s.75-.3359375.75-.75c0-.9013672-.3959961-1.7607422-1.0869141-2.3574219-1.3583984-1.1738281-2.1376934-2.8808594-2.1376934-4.6826172 0-3.9158897 3.5626202-6.8850613 7.5209942-6.0966797 2.3032227.4599609 4.1030273 2.1455078 4.6972656 4.3984375.625 2.3691406-.1010742 4.8066406-1.8955078 6.3632813-.6948242.6025391-1.0932617 1.4609375-1.0932617 2.3525391v.0224609c0 .4140625.3359375.7382813.75.7382813s.75-.3466797.75-.7607422c0-.4570313.2099609-.9013672.5761719-1.2197266 2.2294922-1.9335938 3.1347656-4.953125 2.362793-7.8789063-.7412109-2.8105469-2.9838867-4.9130859-5.8535156-5.4863281-4.9047585-.983017-9.3149395 2.7307453-9.3149395 7.5673828-.0000001 2.2382812.9682616 4.3583984 2.6572246 5.8173828z"/><path d="m36.5146484 22.519043c.4013672-.0917969.6538086-.4902344.5649414-.8935547s-.4887695-.6542969-.894043-.5703125c-1.0288086.2275391-2.940918 1.3759766-2.8134766 4.0957031.0185547.4013672.3500977.7148438.7485352.7148438.0117188 0 .0234337 0 .0356445-.0009766.4135742-.0195313.7333984-.3701172.7138672-.7841797-.0971679-2.078125 1.4614259-2.5175781 1.6445313-2.5615234z"/><path d="m40.3051758 33.4106445h-5.6113281c-.4140625 0-.75.3359375-.75.75s.3359375.75.75.75h5.6113281c.4140625 0 .75-.3359375.75-.75s-.3359375-.75-.75-.75z"/><path d="m38.2495117 14.9243164v-1.9140625c0-.4140625-.3359375-.75-.75-.75s-.75.3359375-.75.75v1.9140625c0 .4140625.3359375.75.75.75s.75-.3359375.75-.75z"/><path d="m43.3510742 16.9321289 1.1928711-1.5996094c.2475586-.3320313.1791992-.8017578-.152832-1.0498047-.3310547-.2451172-.8017578-.1796875-1.0493164.1533203l-1.1928711 1.5996094c-.3699799.4962292-.0110664 1.1982422.6005859 1.1982422.2285156 0 .4545899-.1044922.6015625-.3017578z"/><path d="m48.4306641 18.7885742c-.1777344-.3730469-.6220703-.5322266-.9990234-.3564453l-1.8027344.8544922c-.3740234.1777344-.5336914.625-.3564453.9990234.1758499.3704185.6190376.5348434.9990234.3564453l1.8027344-.8544922c.3740234-.1777343.5336914-.6249999.3564453-.9990234z"/><path d="m32.6967773 17.0854492c.3320313-.2480469.4003906-.7177734.1533203-1.0498047l-1.1923809-1.5996094c-.2480469-.3310547-.7177734-.3994141-1.0498047-.1533203-.3320313.2480469-.4003906.7177734-.1533203 1.0498047l1.1923828 1.5996094c.2463589.3295651.7133389.4020119 1.0498028.1533203z"/><path d="m29.3701191 19.2866211-1.8027344-.8544922c-.3745117-.1748047-.8208008-.0175781-.9990234.3564453-.1772461.3740234-.0175781.8212891.3564453.9990234 1.7484913.8039322 1.8268986.9267578 2.1235352.9267578.798891.0000001 1.0399398-1.0864658.3217773-1.4277343z"/><path d="m40.2666016 36.3295898c-.4140625 0-.75.3359375-.75.75 0 1.1123047-.9052734 2.0166016-2.0180664 2.0166016-1.1118164 0-2.0161133-.9042969-2.0161133-2.0166016 0-.4140625-.3359375-.75-.75-.75-.4286842 0-.8304329.3602943-.7426758.9746094.1162109 1.8349609 1.6464844 3.2919922 3.5107422 3.2919922 1.8530922 0 3.4898148-1.4651413 3.5161133-3.5166016 0-.4140625-.3359375-.75-.75-.75z"/><path d="m25.3476582 32.3491211c-.3540039-.2148438-.8149414-.1035156-1.0307617.25l-19.4575201 31.9052734c-.2158203.3535156-.1040039.8154297.2495117 1.03125.3522201.2141495.8143849.1048889 1.0307617-.25l19.4575195-31.9052734c.2158209-.3535156.1040045-.8154297-.2495111-1.03125z"/><path d="m50.6816406 32.5991211c-.2158203-.3535156-.6767578-.4648438-1.0307617-.25-.3535156.2158203-.465332.6777344-.2495117 1.03125l19.4580078 31.9052734c.1411133.2314453.3881836.359375.640625.359375.5794449 0 .9462433-.6384201.6396484-1.140625z"/><path d="m43.1044922 57.3823242c-.3969727-.1064453-.8120117.1279297-.9204102.5263672-.1088867.4003906.1269531.8125.5268555.9208984.800293.2177734 1.2094727.4384766 1.3852539.5712891-.5786133.4658203-3.0864258 1.1630859-6.9282227 1.1630859-3.840332 0-6.3476543-.6972656-6.9277325-1.1630859.1010742-.0771484.293457-.1953125.6455078-.3320313.3857422-.1503906.5766602-.5859375.4262695-.9716797-.1499023-.3857422-.5864258-.5722656-.9711914-.4267578-1.1147461.4345703-1.6801758 1.015625-1.6801758 1.7255859 0 2.5927734 7.6367168 2.6679688 8.5073223 2.6679688s8.5073242-.0751953 8.5073242-2.6679688c.0000002-1.314453-1.9350584-1.8408202-2.5708006-2.0136718z"/><path d="m44.925293 62.6323242c-.3886719 0-.7084961.2958984-.7460938.6748047-.3657227.4599609-2.9384766 1.2431641-7.0112305 1.2431641s-6.6455059-.7832031-7.0112286-1.2431641c-.0375977-.3789063-.3574219-.6748047-.7460938-.6748047-.4140625 0-.75.3359375-.75.75 0 2.5927734 7.6367168 2.6679688 8.5073223 2.6679688s8.5073242-.0751953 8.5073242-2.6679688c.0000002-.4140625-.3359373-.75-.7499998-.75z"/><path d="m22.6879902 47.3930664c-.5743256-.9222412-1.9180374-.9241104-2.4956055 0l-3.453125 5.5400391c-.608326.9766884.0952015 2.2480469 1.2475586 2.2480469h.5195313v7.4697266c0 .4140625.3359375.75.75.75s.75-.3359375.75-.75v-8.2197266c0-.4140625-.3359375-.75-.75-.75l-1.2436523.0449219 3.4018555-5.5400391 3.4790039 5.4951172h-1.2695313c-.4140625 0-.75.3359375-.75.75v8.2197266c0 .4140625.3359375.75.75.75s.75-.3359375.75-.75v-7.4697266h.5195313c1.150753 0 1.8567696-1.2699356 1.2475586-2.2480469z"/><path d="m53.6142578 47.3930664c-.5410156-.8671875-1.9545898-.8671875-2.4946289 0l-3.4541016 5.5400391c-.6087036.9772987.0956841 2.2480469 1.2480469 2.2480469h.519043v7.4697266c0 .4140625.3359375.75.75.75s.75-.3359375.75-.75v-8.2197266c0-.4140625-.3359375-.75-.75-.75l-1.2441406.0449219 3.4023438-5.5400391 3.4790039 5.4951172h-1.269043c-.4140625 0-.75.3359375-.75.75v8.2197266c0 .4140625.3359375.75.75.75s.75-.3359375.75-.75v-7.4697266h.519043c1.1542854 0 1.8563652-1.2726974 1.2475586-2.2480469z"/><path d="m37.1430664 58.6137695h.0263672c4.2282791 0 7.6612091-3.4159203 7.6743164-7.6484375.0136719-4.2304688-3.418457-7.6845703-7.6508789-7.6982422-.0083008 0-.0161133 0-.0239258 0-4.2211914 0-7.6625957 3.4267578-7.6767559 7.6494141-.013134 4.2393265 3.40909 7.6851387 7.650877 7.6972656zm.0253906-13.8466797h.0195313c3.4052734.0117188 6.1665039 2.7900391 6.1557617 6.1943359-.0110474 3.3892288-2.7589378 6.1523438-6.1748047 6.1523438-.0068359 0-.0141602 0-.0209961 0-3.4087448-.0100899-6.1668873-2.7792397-6.1557598-6.1923828.0112305-3.3974609 2.7802715-6.1542969 6.1762676-6.1542969z"/><path d="m38.0380859 53.1245117c-.6173019.4005051-1.7514877.0676346-2.2285156-.4775391-.2729492-.3105469-.746582-.3417969-1.0585938-.0683594-.3115234.2724609-.3422852.7470703-.0693359 1.0585938.4780083.5440102 1.1592522.8880653 1.8587646 1.0535278l-.0013428.4083862c-.0014648.4140625.3334961.7509766.7475586.7519531h.0024414c.4130859 0 .7485352-.3339844.75-.7480469l.0012207-.3829956c1.79916-.4168472 2.6511421-2.6553993 1.2507324-3.7927856-1.1020164-.8935814-2.8718071-.6549606-3.0922852-1.2509766-.0522461-.1425781-.0385742-.3115234.0400391-.4775391.3530502-.7471466 1.7380867-.5360947 2.3300781-.0078125.3085938.2753906.7822266.25 1.0585938-.0585938s.2504883-.7822266-.0585938-1.0585938c-.413147-.369751-.9703369-.6228027-1.5545654-.7543335l.0018311-.5562134c.0014648-.4140625-.3334961-.7509766-.7475586-.7519531-.0009766 0-.0014648 0-.0024414 0-.4130859 0-.7485352.3339844-.75.7480469l-.001709.5340576c-1.5050278.3433418-2.1363716 1.784668-1.7224121 2.9024658.6140862 1.6658669 2.7403717 1.2374268 3.5537109 1.8955078.3335.2728618.02129.818249-.3076171 1.0332034z"/></g></svg>