<svg clip-rule="evenodd" fill-rule="evenodd" height="512" image-rendering="optimizeQuality" shape-rendering="geometricPrecision" text-rendering="geometricPrecision" viewBox="0 0 6.82666 6.82666" width="512" xmlns="http://www.w3.org/2000/svg"><g id="Layer_x0020_1"><g id="_391070304"><g><path id="_305996328" d="m5.68697 4.38129c-.0294606 0-.0533346-.023874-.0533346-.0533307v-2.60616h-1.27238c-.0294567 0-.0533307-.023874-.0533307-.0533346 0-.0294567.023874-.0533307.0533307-.0533307h1.32571c.0294606 0 .0533307.023874.0533307.0533307v2.65949c0 .0294724-.0238701.0533307-.0533307.0533307zm-4.54727 0c-.0294567 0-.0533307-.023874-.0533307-.0533307v-2.65948c0-.0294606.023874-.0533307.0533307-.0533307h1.2763c.0294606 0 .0533346.0238701.0533346.0533307s-.023874.0533346-.0533346.0533346h-1.22296v2.60615c0 .0294646-.0238898.0533228-.0533346.0533228z"/></g><g><path id="_305995728" d="m5.68697 4.88741h-4.54727c-.0294567 0-.0533307-.023874-.0533307-.0533307v-.506106c0-.0294606.023874-.0533346.0533307-.0533346h4.54727c.0294606 0 .0533307.023874.0533307.0533346v.506106c0 .0294567-.0238701.0533307-.0533307.0533307zm-4.49394-.106665h4.4406v-.399457h-4.4406z"/></g><g><path id="_305995560" d="m4.26533 5.49188c-.0294606 0-.0533346-.023874-.0533346-.0533346v-.604465c0-.0294606.023874-.0533346.0533346-.0533346.0294567 0 .0533307.023874.0533307.0533346v.604465c0 .0294724-.023874.0533346-.0533307.0533346zm-1.70399 0c-.0294567 0-.0533307-.023874-.0533307-.0533346v-.604465c0-.0294606.023874-.0533346.0533307-.0533346.0294606 0 .0533346.023874.0533346.0533346v.604465c0 .0294724-.023874.0533346-.0533346.0533346z"/></g><g><path id="_305995512" d="m4.86871 5.80828h-2.91076c-.0229843 0-.0433898-.0147362-.050622-.0365394l-.104945-.316386c-.00540157-.0162638-.00264961-.034126.00737402-.0480157.0100276-.0138898.0261102-.0221102.0432362-.0221102l3.12065-.00000787c.017122 0 .0332205.00822047.0432323.0221102.0100118.0138898.0127756.031748.00737402.0480157l-.104941.316386c-.00720866.0218071-.0276142.0365472-.0505945.0365472zm-2.87226-.106665h2.83374l.0695709-.209736h-2.97287z"/></g><g><path id="_305995440" d="m3.38863 3.30633c-.305551 0-.592843-.118988-.808913-.335051-.216067-.216067-.335067-.503346-.335067-.808913s.119-.592839.335067-.808913c.216067-.216063.503346-.335067.808913-.335067s.592839.119004.808894.335067c.446024.446024.446024 1.17178 0 1.61782-.216067.216071-.503327.335059-.808894.335059zm0-2.18126c-.277071 0-.537567.107902-.73348.303819s-.303819.456402-.303819.73348c0 .277067.107898.537567.303819.733496s.456409.303819.73348.303819c.277067 0 .537563-.107902.733496-.303819.404425-.404453.404425-1.06253 0-1.46698-.195933-.195913-.456429-.303819-.733496-.303819z"/></g><g><path id="_305995320" d="m4.72477 3.55185c-.0136378 0-.0273071-.00520472-.0377087-.015626l-.564953-.564941c-.0208346-.0208346-.0208346-.0545984 0-.0754331.0207992-.0208189.0546063-.0208189.0754134 0l.564957.564957c.0208346.0208189.0208346.0545984 0 .0754173-.0104016.0104213-.0240709.015626-.0377087.015626z"/></g><g><path id="_305995416" d="m4.84854 4.05772h-2.87042c-.0294606 0-.0533346-.023874-.0533346-.0533307 0-.0294606.023874-.0533346.0533346-.0533346h2.87042c.0294606 0 .0533346.023874.0533346.0533346 0 .0294567-.023874.0533307-.0533346.0533307z"/></g><g><g><path id="_305995248" d="m3.38863 2.96218c-.213638 0-.414484-.0831969-.565551-.23426-.311843-.311846-.311843-.81926 0-1.1311.151055-.151055.351913-.234264.565551-.234264.213634 0 .414496.0831969.565547.234264.311846.311858.311846.819256 0 1.1311-.151063.151063-.351913.23426-.565547.23426zm0-1.49296c-.185154 0-.359205.0720984-.490122.203008-.270252.27026-.270252.710012 0 .980256.130917.130917.304969.203012.490122.203012.185154 0 .359205-.0720984.49013-.203012.270252-.270248.270252-.709996 0-.980256-.130925-.130917-.304976-.203008-.49013-.203008z"/></g><g><path id="_305995224" d="m3.38863 1.46922c-.0294606 0-.0533346-.023874-.0533346-.0533346v-.121028c0-.0294606.023874-.0533346.0533346-.0533346.0294567 0 .0533307.023874.0533307.0533346v.121028c.00001575.0294528-.023874.0533346-.0533307.0533346z"/></g><g><path id="_305995080" d="m4.25613 2.2157h-.121024c-.0294567 0-.0533307-.023874-.0533307-.0533346s.023874-.0533346.0533307-.0533346h.121024c.0294606 0 .0533307.023874.0533307.0533346s-.0238701.0533346-.0533307.0533346z"/></g><g><path id="_305994840" d="m3.38863 3.0832c-.0294606 0-.0533346-.023874-.0533346-.0533346v-.121028c0-.0294567.023874-.0533307.0533346-.0533307.0294567 0 .0533307.023874.0533307.0533307v.121028c.00001575.0294567-.023874.0533346-.0533307.0533346z"/></g><g><path id="_305990688" d="m2.64216 2.2157h-.121028c-.0294567 0-.0533307-.023874-.0533307-.0533346s.023874-.0533346.0533307-.0533346h.121028c.0294606 0 .0533346.023874.0533346.0533346s-.0238898.0533346-.0533346.0533346z"/></g></g><g><g><path id="_305990304" d="m3.38863 2.96213c-.200776 0-.392681-.0746378-.540343-.21015-.0167756-.0154016-.0219331-.0397638-.0128189-.0606378.0960551-.22.313177-.36215.553161-.36215.239972 0 .457091.14215.553161.36215.00911024.020874.00395669.0452323-.0128189.0606378-.147681.135512-.339567.21015-.540343.21015zm-.438539-.263c.123461.101083.277705.156335.438539.156335.160831 0 .315079-.055248.438524-.156335-.0858031-.161122-.253953-.263287-.438524-.263287-.184567.00001575-.352732.102165-.438539.263287z"/></g><g><path id="_305989920" d="m3.38863 3.0832c-.0294606 0-.0533346-.023874-.0533346-.0533346v-.121028c0-.0294567.023874-.0533307.0533346-.0533307.0294567 0 .0533307.023874.0533307.0533307v.121028c.00001575.0294567-.023874.0533346-.0533307.0533346z"/></g></g><g><path id="_305990112" d="m3.38863 2.23207c-.161823 0-.293469-.131654-.293469-.293469s.131654-.293469.293469-.293469c.161819 0 .293457.131654.293457.293469s-.131638.293469-.293457.293469zm0-.480276c-.103012 0-.186819.0838031-.186819.186803 0 .102996.0838071.186799.186819.186799.103012 0 .186799-.0838031.186799-.186799 0-.103-.0837874-.186803-.186799-.186803z"/></g><g><path id="_305989800" d="m4.36952 3.76821h-1.91236c-.0294567 0-.0533307-.023874-.0533307-.0533346 0-.0294567.023874-.0533307.0533307-.0533307h1.91236c.0294606 0 .0533346.023874.0533346.0533307 0 .0294606-.023874.0533346-.0533346.0533346z"/></g><g><g><path id="_305989776" d="m.906705 4.88741c-.0294606 0-.0533346-.023874-.0533346-.0533307v-.952382c0-.0294606.023874-.0533346.0533346-.0533346.0294567 0 .0533307.023874.0533307.0533346v.952382c-.00001575.0294567-.0238898.0533307-.0533307.0533307z"/></g><g><path id="_305990280" d="m5.91996 2.67419c-.0294606 0-.0533346-.023874-.0533346-.0533307v-.952398c0-.0294606.023874-.0533307.0533346-.0533307.0294567 0 .0533307.0238701.0533307.0533307v.952398c0 .0294567-.0238583.0533307-.0533307.0533307z"/></g></g><g><g><path id="_391076904" d="m1.37628 2.81534c-.0294606 0-.0533346-.023874-.0533346-.0533307v-.85413c0-.0294606.023874-.0533346.0533346-.0533346s.0533307.023874.0533307.0533346v.85413c0 .0294567-.0238701.0533307-.0533307.0533307z"/></g><g><path id="_391070040" d="m5.45039 4.14189c-.0294567 0-.0533307-.023874-.0533307-.0533346v-.85413c0-.0294567.023874-.0533307.0533307-.0533307.0294606 0 .0533346.023874.0533346.0533307v.85413c0 .0294606-.023874.0533346-.0533346.0533346z"/></g></g></g></g></svg>